<mxfile host="app.diagrams.net" agent="Mozilla/5.0 (Windows NT 10.0; Win64; x64) AppleWebKit/537.36 (KHTML, like Gecko) Chrome/131.0.0.0 Safari/537.36" version="24.8.9">
  <diagram name="PÃ¡gina-1" id="s3NBthcRHYCY2otfY3-w">
    <mxGraphModel dx="2261" dy="772" grid="1" gridSize="10" guides="1" tooltips="1" connect="1" arrows="1" fold="1" page="1" pageScale="1" pageWidth="827" pageHeight="1169" math="0" shadow="0">
      <root>
        <mxCell id="0" />
        <mxCell id="1" parent="0" />
        <mxCell id="W4ZChVWEhGJm1bQkyU7s-11" style="edgeStyle=orthogonalEdgeStyle;rounded=0;orthogonalLoop=1;jettySize=auto;html=1;exitX=1;exitY=0.5;exitDx=0;exitDy=0;exitPerimeter=0;endArrow=none;endFill=0;" edge="1" parent="1" source="W4ZChVWEhGJm1bQkyU7s-1" target="W4ZChVWEhGJm1bQkyU7s-8">
          <mxGeometry relative="1" as="geometry" />
        </mxCell>
        <mxCell id="W4ZChVWEhGJm1bQkyU7s-1" value="" style="outlineConnect=0;dashed=0;verticalLabelPosition=bottom;verticalAlign=top;align=center;html=1;shape=mxgraph.aws3.management_console;fillColor=#D2D3D3;gradientColor=none;" vertex="1" parent="1">
          <mxGeometry x="-80" y="475" width="90" height="110" as="geometry" />
        </mxCell>
        <mxCell id="W4ZChVWEhGJm1bQkyU7s-15" style="edgeStyle=orthogonalEdgeStyle;rounded=0;orthogonalLoop=1;jettySize=auto;html=1;" edge="1" parent="1" source="W4ZChVWEhGJm1bQkyU7s-6" target="W4ZChVWEhGJm1bQkyU7s-9">
          <mxGeometry relative="1" as="geometry">
            <Array as="points">
              <mxPoint x="740" y="710" />
            </Array>
          </mxGeometry>
        </mxCell>
        <mxCell id="W4ZChVWEhGJm1bQkyU7s-19" value="RecuperaUrlOriginal" style="edgeLabel;html=1;align=center;verticalAlign=middle;resizable=0;points=[];" vertex="1" connectable="0" parent="W4ZChVWEhGJm1bQkyU7s-15">
          <mxGeometry x="-0.6166" y="1" relative="1" as="geometry">
            <mxPoint as="offset" />
          </mxGeometry>
        </mxCell>
        <mxCell id="W4ZChVWEhGJm1bQkyU7s-6" value="Amazon S3" style="sketch=0;outlineConnect=0;fontColor=#232F3E;gradientColor=none;strokeColor=#ffffff;fillColor=#232F3E;dashed=0;verticalLabelPosition=middle;verticalAlign=bottom;align=center;html=1;whiteSpace=wrap;fontSize=10;fontStyle=1;spacing=3;shape=mxgraph.aws4.productIcon;prIcon=mxgraph.aws4.s3;" vertex="1" parent="1">
          <mxGeometry x="700" y="470" width="80" height="100" as="geometry" />
        </mxCell>
        <mxCell id="W4ZChVWEhGJm1bQkyU7s-12" style="edgeStyle=orthogonalEdgeStyle;rounded=0;orthogonalLoop=1;jettySize=auto;html=1;" edge="1" parent="1" source="W4ZChVWEhGJm1bQkyU7s-8" target="W4ZChVWEhGJm1bQkyU7s-10">
          <mxGeometry relative="1" as="geometry">
            <Array as="points">
              <mxPoint x="260" y="370" />
            </Array>
          </mxGeometry>
        </mxCell>
        <mxCell id="W4ZChVWEhGJm1bQkyU7s-13" style="edgeStyle=orthogonalEdgeStyle;rounded=0;orthogonalLoop=1;jettySize=auto;html=1;" edge="1" parent="1" source="W4ZChVWEhGJm1bQkyU7s-8" target="W4ZChVWEhGJm1bQkyU7s-9">
          <mxGeometry relative="1" as="geometry">
            <Array as="points">
              <mxPoint x="260" y="710" />
            </Array>
          </mxGeometry>
        </mxCell>
        <mxCell id="W4ZChVWEhGJm1bQkyU7s-8" value="Amazon API Gateway" style="sketch=0;outlineConnect=0;fontColor=#232F3E;gradientColor=none;strokeColor=#ffffff;fillColor=#232F3E;dashed=0;verticalLabelPosition=middle;verticalAlign=bottom;align=center;html=1;whiteSpace=wrap;fontSize=10;fontStyle=1;spacing=3;shape=mxgraph.aws4.productIcon;prIcon=mxgraph.aws4.api_gateway;" vertex="1" parent="1">
          <mxGeometry x="220" y="475" width="80" height="110" as="geometry" />
        </mxCell>
        <mxCell id="W4ZChVWEhGJm1bQkyU7s-9" value="AWS Lambda" style="sketch=0;outlineConnect=0;fontColor=#232F3E;gradientColor=none;strokeColor=#ffffff;fillColor=#232F3E;dashed=0;verticalLabelPosition=middle;verticalAlign=bottom;align=center;html=1;whiteSpace=wrap;fontSize=10;fontStyle=1;spacing=3;shape=mxgraph.aws4.productIcon;prIcon=mxgraph.aws4.lambda;" vertex="1" parent="1">
          <mxGeometry x="414" y="660" width="80" height="100" as="geometry" />
        </mxCell>
        <mxCell id="W4ZChVWEhGJm1bQkyU7s-14" style="edgeStyle=orthogonalEdgeStyle;rounded=0;orthogonalLoop=1;jettySize=auto;html=1;" edge="1" parent="1" source="W4ZChVWEhGJm1bQkyU7s-10" target="W4ZChVWEhGJm1bQkyU7s-6">
          <mxGeometry relative="1" as="geometry" />
        </mxCell>
        <mxCell id="W4ZChVWEhGJm1bQkyU7s-20" value="SalvaUrlOriginal" style="edgeLabel;html=1;align=center;verticalAlign=middle;resizable=0;points=[];" vertex="1" connectable="0" parent="W4ZChVWEhGJm1bQkyU7s-14">
          <mxGeometry x="0.6821" y="1" relative="1" as="geometry">
            <mxPoint as="offset" />
          </mxGeometry>
        </mxCell>
        <mxCell id="W4ZChVWEhGJm1bQkyU7s-10" value="AWS Lambda" style="sketch=0;outlineConnect=0;fontColor=#232F3E;gradientColor=none;strokeColor=#ffffff;fillColor=#232F3E;dashed=0;verticalLabelPosition=middle;verticalAlign=bottom;align=center;html=1;whiteSpace=wrap;fontSize=10;fontStyle=1;spacing=3;shape=mxgraph.aws4.productIcon;prIcon=mxgraph.aws4.lambda;" vertex="1" parent="1">
          <mxGeometry x="414" y="320" width="80" height="100" as="geometry" />
        </mxCell>
        <mxCell id="W4ZChVWEhGJm1bQkyU7s-17" value="RedirectUrl" style="text;html=1;align=center;verticalAlign=middle;resizable=0;points=[];autosize=1;strokeColor=none;fillColor=none;" vertex="1" parent="1">
          <mxGeometry x="414" y="760" width="80" height="30" as="geometry" />
        </mxCell>
        <mxCell id="W4ZChVWEhGJm1bQkyU7s-18" value="CreateUrl" style="text;html=1;align=center;verticalAlign=middle;resizable=0;points=[];autosize=1;strokeColor=none;fillColor=none;" vertex="1" parent="1">
          <mxGeometry x="419" y="420" width="70" height="30" as="geometry" />
        </mxCell>
        <mxCell id="W4ZChVWEhGJm1bQkyU7s-21" value="/create" style="text;html=1;align=center;verticalAlign=middle;resizable=0;points=[];autosize=1;strokeColor=none;fillColor=none;" vertex="1" parent="1">
          <mxGeometry x="250" y="338" width="60" height="30" as="geometry" />
        </mxCell>
        <mxCell id="W4ZChVWEhGJm1bQkyU7s-24" value="Client" style="text;html=1;align=center;verticalAlign=middle;resizable=0;points=[];autosize=1;strokeColor=none;fillColor=none;" vertex="1" parent="1">
          <mxGeometry x="-55" y="588" width="50" height="30" as="geometry" />
        </mxCell>
      </root>
    </mxGraphModel>
  </diagram>
</mxfile>
